<svg xmlns="http://www.w3.org/2000/svg" width="800" height="800" viewBox="0 0 800 800">
  <defs>
    <linearGradient id="bg" x1="0%" y1="0%" x2="100%" y2="100%">
      <stop offset="0%" style="stop-color:#e8eefb"/>
      <stop offset="100%" style="stop-color:#dbeafe"/>
    </linearGradient>
  </defs>
  <rect width="800" height="800" fill="url(#bg)"/>
  <g transform="translate(400,360)" fill="none" stroke="#1a56db" stroke-width="3" opacity="0.5">
    <path d="M0-70 C40-70 70-40 70 0 C70 40 40 70 0 70 C-40 70-70 40-70 0 C-70-40-40-70 0-70 M-25-15 A8 8 0 1 1-25-14.9 M15-15 A8 8 0 1 1 15-14.9 M-15 25 A25 20 0 0 0 15 25"/>
  </g>
  <text x="400" y="590" text-anchor="middle" font-family="system-ui,sans-serif" font-size="28" font-weight="600" fill="#1a56db" opacity="0.6">Skin Analysis</text>
  <text x="400" y="630" text-anchor="middle" font-family="system-ui,sans-serif" font-size="20" fill="#6b7280" opacity="0.5">$77</text>
</svg>