<svg xmlns="http://www.w3.org/2000/svg" width="800" height="800" viewBox="0 0 800 800">
  <defs>
    <linearGradient id="bg" x1="0%" y1="0%" x2="100%" y2="100%">
      <stop offset="0%" style="stop-color:#e8eefb"/>
      <stop offset="100%" style="stop-color:#dbeafe"/>
    </linearGradient>
  </defs>
  <rect width="800" height="800" fill="url(#bg)"/>
  <g transform="translate(400,360)" fill="none" stroke="#1a56db" stroke-width="3" opacity="0.5">
    <path d="M-70 0 C-70-40-40-60 0-60 C40-60 70-40 70 0 C70 40 40 60 0 60 C-40 60-70 40-70 0 M-20-10 A20 20 0 1 1-20 10 A20 20 0 1 1-20-10 M0-5 A5 5 0 1 1 0 5 A5 5 0 1 1 0-5"/>
  </g>
  <text x="400" y="590" text-anchor="middle" font-family="system-ui,sans-serif" font-size="28" font-weight="600" fill="#1a56db" opacity="0.6">Vision Eye Exam</text>
  <text x="400" y="630" text-anchor="middle" font-family="system-ui,sans-serif" font-size="20" fill="#6b7280" opacity="0.5">$150</text>
</svg>