<svg xmlns="http://www.w3.org/2000/svg" width="800" height="800" viewBox="0 0 800 800">
  <defs>
    <linearGradient id="bg" x1="0%" y1="0%" x2="100%" y2="100%">
      <stop offset="0%" style="stop-color:#e8eefb"/>
      <stop offset="100%" style="stop-color:#dbeafe"/>
    </linearGradient>
  </defs>
  <rect width="800" height="800" fill="url(#bg)"/>
  <g transform="translate(400,360)" fill="none" stroke="#1a56db" stroke-width="3" opacity="0.5">
    <path d="M0-80 C50-80 80-40 80 10 C80 60 40 80 0 80 C-40 80-80 60-80 10 C-80-40-50-80 0-80 M-30-30 A30 30 0 0 1 30-30 A30 30 0 0 1 30 30 M-30 30 A30 30 0 0 0 0 60"/>
  </g>
  <text x="400" y="590" text-anchor="middle" font-family="system-ui,sans-serif" font-size="28" font-weight="600" fill="#1a56db" opacity="0.6">Women's Health Screening</text>
  <text x="400" y="630" text-anchor="middle" font-family="system-ui,sans-serif" font-size="20" fill="#6b7280" opacity="0.5">$577</text>
</svg>